<?xml version="1.0" encoding="UTF-8" standalone="no"?>
<svg
   xmlns:dc="http://purl.org/dc/elements/1.1/"
   xmlns:cc="http://creativecommons.org/ns#"
   xmlns:rdf="http://www.w3.org/1999/02/22-rdf-syntax-ns#"
   xmlns:svg="http://www.w3.org/2000/svg"
   xmlns="http://www.w3.org/2000/svg"
   viewBox="0 0 793.70135 1122.52"
   height="1122.52"
   width="793.70135"
   xml:space="preserve"
   id="svg2"
   version="1.1"><metadata
     id="metadata8"><rdf:RDF><cc:Work
         rdf:about=""><dc:format>image/svg+xml</dc:format><dc:type
           rdf:resource="http://purl.org/dc/dcmitype/StillImage" /></cc:Work></rdf:RDF></metadata><defs
     id="defs6"><clipPath
       id="clipPath18"
       clipPathUnits="userSpaceOnUse"><path
         id="path16"
         d="M 0,841.89 H 595.276 V 0 H 0 Z" /></clipPath></defs><g
     transform="matrix(1.3333333,0,0,-1.3333333,0,1122.52)"
     id="g10"><g
       id="g12"><g
         clip-path="url(#clipPath18)"
         id="g14"><g
           transform="translate(272.8745,487.4009)"
           id="g20"><path
             id="path22"
             style="fill:#5f6262;fill-opacity:1;fill-rule:nonzero;stroke:none"
             d="M 0,0 3.12,-0.191 C 3.007,-1.858 2.478,-3.215 1.532,-4.263 c -0.947,-1.047 -2.197,-1.57 -3.75,-1.57 -1.892,0 -3.334,0.702 -4.325,2.105 -0.991,1.405 -1.486,3.337 -1.486,5.8 0,2.485 0.491,4.43 1.475,5.833 0.983,1.405 2.444,2.107 4.381,2.107 3.205,0 4.951,-1.983 5.236,-5.947 L -0.022,3.84 c -0.083,2.282 -0.796,3.424 -2.14,3.424 -0.706,0 -1.267,-0.368 -1.684,-1.104 -0.416,-0.736 -0.625,-2.162 -0.625,-4.279 0,-1.892 0.192,-3.193 0.575,-3.902 0.382,-0.709 0.957,-1.064 1.723,-1.064 1.231,0 1.955,1.028 2.173,3.085" /></g><g
           transform="translate(285.0254,489.4956)"
           id="g24"><path
             id="path26"
             style="fill:#5f6262;fill-opacity:1;fill-rule:nonzero;stroke:none"
             d="m 0,0 c 0,2.072 -0.162,3.451 -0.484,4.139 -0.324,0.686 -0.837,1.03 -1.543,1.03 -0.699,0 -1.209,-0.346 -1.532,-1.036 C -3.882,3.442 -4.043,2.064 -4.043,0 c 0,-2.027 0.159,-3.397 0.479,-4.11 0.319,-0.713 0.831,-1.07 1.537,-1.07 0.698,0 1.211,0.341 1.537,1.025 C -0.163,-3.473 0,-2.087 0,0 m 3.559,0 c 0,-5.285 -1.859,-7.928 -5.575,-7.928 -1.847,0 -3.239,0.674 -4.178,2.022 -0.938,1.347 -1.408,3.316 -1.408,5.906 0,5.277 1.858,7.917 5.575,7.917 1.817,0 3.202,-0.661 4.155,-1.982 C 3.082,4.613 3.559,2.635 3.559,0" /></g><g
           transform="translate(290.9385,497.1763)"
           id="g28"><path
             id="path30"
             style="fill:#5f6262;fill-opacity:1;fill-rule:nonzero;stroke:none"
             d="M 0,0 H 4.954 L 7.128,-9.494 9.571,0 H 14.38 V -15.372 H 11.216 V -2.5 L 8.074,-15.372 H 5.619 L 2.747,-2.5 V -15.372 H 0 Z" /></g><g
           transform="translate(308.2246,497.1763)"
           id="g32"><path
             id="path34"
             style="fill:#5f6262;fill-opacity:1;fill-rule:nonzero;stroke:none"
             d="M 0,0 H 4.953 L 7.127,-9.494 9.57,0 h 4.809 V -15.372 H 11.215 V -2.5 L 8.074,-15.372 H 5.619 L 2.746,-2.5 V -15.372 H 0 Z" /></g><g
           transform="translate(325.5098,497.1763)"
           id="g36"><path
             id="path38"
             style="fill:#5f6262;fill-opacity:1;fill-rule:nonzero;stroke:none"
             d="m 0,0 h 3.379 v -8.784 c 0,-1.239 0.057,-2.103 0.168,-2.59 0.113,-0.488 0.348,-0.858 0.705,-1.109 0.355,-0.252 0.793,-0.377 1.311,-0.377 0.564,0 1.009,0.138 1.339,0.416 0.332,0.278 0.534,0.645 0.61,1.103 0.074,0.458 0.111,1.311 0.111,2.557 V 0 h 2.828 v -8.649 c 0,-1.727 -0.099,-3.014 -0.299,-3.863 -0.199,-0.848 -0.705,-1.576 -1.519,-2.184 -0.817,-0.609 -1.936,-0.912 -3.363,-0.912 -1.336,0 -2.387,0.223 -3.153,0.67 -0.765,0.446 -1.31,1.073 -1.633,1.88 C 0.162,-12.251 0,-10.826 0,-8.784 Z" /></g><g
           transform="translate(338.7422,497.1763)"
           id="g40"><path
             id="path42"
             style="fill:#5f6262;fill-opacity:1;fill-rule:nonzero;stroke:none"
             d="M 0,0 H 3.75 L 7.703,-9.55 V 0 h 2.613 V -15.372 H 7.297 L 2.613,-4.246 V -15.372 H 0 Z" /></g><path
           id="path44"
           style="fill:#5f6262;fill-opacity:1;fill-rule:nonzero;stroke:none"
           d="m 351.828,497.176 h 3.379 v -15.372 h -3.379 z" /><g
           transform="translate(365.5898,487.4009)"
           id="g46"><path
             id="path48"
             style="fill:#5f6262;fill-opacity:1;fill-rule:nonzero;stroke:none"
             d="M 0,0 3.119,-0.191 C 3.006,-1.858 2.477,-3.215 1.531,-4.263 c -0.947,-1.047 -2.197,-1.57 -3.75,-1.57 -1.892,0 -3.334,0.702 -4.324,2.105 -0.992,1.405 -1.486,3.337 -1.486,5.8 0,2.485 0.49,4.43 1.474,5.833 0.983,1.405 2.444,2.107 4.381,2.107 3.205,0 4.951,-1.983 5.237,-5.947 L -0.023,3.84 C -0.105,6.122 -0.82,7.264 -2.164,7.264 -2.869,7.264 -3.43,6.896 -3.848,6.16 -4.264,5.424 -4.473,3.998 -4.473,1.881 c 0,-1.892 0.194,-3.193 0.577,-3.902 0.382,-0.709 0.957,-1.064 1.722,-1.064 1.231,0 1.955,1.028 2.174,3.085" /></g><g
           transform="translate(376.5195,487.6147)"
           id="g50"><path
             id="path52"
             style="fill:#5f6262;fill-opacity:1;fill-rule:nonzero;stroke:none"
             d="M 0,0 -1.553,6.298 -3.043,0 Z M -2.936,9.562 H 0.465 L 4.857,-5.811 H 1.402 l -0.767,3.176 h -4.328 l -0.756,-3.176 h -3.104 z" /></g><g
           transform="translate(380.5215,497.1763)"
           id="g54"><path
             id="path56"
             style="fill:#5f6262;fill-opacity:1;fill-rule:nonzero;stroke:none"
             d="M 0,0 H 9.584 V -2.884 H 6.441 V -15.372 H 3.063 v 12.488 l -3.063,0 z" /></g><path
           id="path58"
           style="fill:#5f6262;fill-opacity:1;fill-rule:nonzero;stroke:none"
           d="m 391.277,497.176 h 3.377 v -15.372 h -3.377 z" /><g
           transform="translate(404.6094,489.4956)"
           id="g60"><path
             id="path62"
             style="fill:#5f6262;fill-opacity:1;fill-rule:nonzero;stroke:none"
             d="m 0,0 c 0,2.072 -0.162,3.451 -0.484,4.139 -0.323,0.686 -0.838,1.03 -1.543,1.03 -0.698,0 -1.209,-0.346 -1.532,-1.036 C -3.881,3.442 -4.043,2.064 -4.043,0 c 0,-2.027 0.16,-3.397 0.479,-4.11 0.318,-0.713 0.832,-1.07 1.537,-1.07 0.699,0 1.211,0.341 1.537,1.025 C -0.164,-3.473 0,-2.087 0,0 m 3.559,0 c 0,-5.285 -1.858,-7.928 -5.575,-7.928 -1.847,0 -3.24,0.674 -4.177,2.022 -0.94,1.347 -1.409,3.316 -1.409,5.906 0,5.277 1.858,7.917 5.575,7.917 1.816,0 3.201,-0.661 4.156,-1.982 C 3.082,4.613 3.559,2.635 3.559,0" /></g><g
           transform="translate(410.3984,497.1763)"
           id="g64"><path
             id="path66"
             style="fill:#5f6262;fill-opacity:1;fill-rule:nonzero;stroke:none"
             d="M 0,0 H 3.75 L 7.701,-9.55 V 0 h 2.613 V -15.372 H 7.297 L 2.611,-4.246 V -15.372 H 0 Z" /></g><g
           transform="translate(432.8867,493.8315)"
           id="g68"><path
             id="path70"
             style="fill:#5f6262;fill-opacity:1;fill-rule:nonzero;stroke:none"
             d="m 0,0 -2.793,-1.07 c -0.398,1.268 -1.127,1.903 -2.186,1.903 -0.494,0 -0.886,-0.141 -1.175,-0.422 -0.289,-0.282 -0.434,-0.61 -0.434,-0.985 0,-0.436 0.17,-0.783 0.512,-1.042 0.342,-0.259 1.056,-0.599 2.146,-1.02 0.991,-0.367 1.77,-0.731 2.336,-1.092 0.567,-0.36 1.026,-0.85 1.375,-1.469 0.348,-0.619 0.524,-1.339 0.524,-2.157 0,-1.434 -0.494,-2.611 -1.483,-3.531 -0.986,-0.919 -2.31,-1.379 -3.968,-1.379 -2.786,0 -4.565,1.408 -5.338,4.223 l 2.951,0.845 c 0.359,-1.547 1.181,-2.32 2.465,-2.32 0.586,0 1.06,0.152 1.425,0.456 0.364,0.304 0.545,0.704 0.545,1.2 0,0.375 -0.127,0.711 -0.382,1.007 -0.254,0.296 -0.84,0.61 -1.756,0.941 -1.18,0.42 -2.057,0.801 -2.635,1.142 -0.578,0.342 -1.055,0.83 -1.432,1.464 -0.375,0.635 -0.562,1.358 -0.562,2.168 0,1.381 0.445,2.513 1.334,3.396 0.89,0.882 2.066,1.323 3.531,1.323 2.672,0 4.34,-1.194 5,-3.581" /></g><path
           id="path72"
           style="fill:#acacab;fill-opacity:1;fill-rule:evenodd;stroke:none"
           d="m 254.861,515.893 h -9.111 v 36.654 h 9.111 z" /><path
           id="path74"
           style="fill:#acacab;fill-opacity:1;fill-rule:evenodd;stroke:none"
           d="m 162.058,552.335 h 8.898 v -36.442 h -8.898 z" /><path
           id="path76"
           style="fill:#acacab;fill-opacity:1;fill-rule:evenodd;stroke:none"
           d="m 172.652,552.335 h 8.899 v -36.442 h -8.899 z" /><path
           id="path78"
           style="fill:#acacab;fill-opacity:1;fill-rule:evenodd;stroke:none"
           d="m 183.034,552.335 h 8.899 v -36.442 h -8.899 z" /><path
           id="path80"
           style="fill:#acacab;fill-opacity:1;fill-rule:evenodd;stroke:none"
           d="m 193.628,552.335 h 8.687 v -36.442 h -8.687 z" /><path
           id="path82"
           style="fill:#acacab;fill-opacity:1;fill-rule:evenodd;stroke:none"
           d="m 204.01,552.335 h 8.688 v -36.442 h -8.688 z" /><path
           id="path84"
           style="fill:#acacab;fill-opacity:1;fill-rule:evenodd;stroke:none"
           d="m 214.393,552.335 h 8.899 v -36.442 h -8.899 z" /><path
           id="path86"
           style="fill:#acacab;fill-opacity:1;fill-rule:evenodd;stroke:none"
           d="m 224.986,552.547 h 8.688 v -36.654 h -8.688 z" /><path
           id="path88"
           style="fill:#acacab;fill-opacity:1;fill-rule:evenodd;stroke:none"
           d="m 235.157,552.547 h 9.11 v -36.443 h -9.11 z" /><g
           transform="translate(183.0342,507.4165)"
           id="g90"><path
             id="path92"
             style="fill:#2fa1de;fill-opacity:1;fill-rule:evenodd;stroke:none"
             d="M 0,0 -4.026,6.78 H 4.45 Z m 45.555,0 h -4.662 v 6.78 h 4.662 z M 16.315,0 H 12.29 l 4.025,6.78 z m 5.933,-8.687 H 7.416 l 4.026,6.993 h 10.806 z m 12.501,6.993 H 45.555 V -8.686 H 34.749 Z m 0,-8.688 h 10.806 v -6.991 H 34.749 Z m -28.392,0 h 15.891 v -6.991 H 6.357 Z M 57.843,0 v 6.992 h 12.501 v 1.485 h 1.483 V 6.992 4.661 1.06 0 v -1.694 -1.06 -5.084 -0.849 -1.483 -1.695 -4.66 -0.636 -1.695 -1.695 -5.298 h -92.803 v 5.934 0.847 1.695 1.271 4.237 1.483 1.907 0.637 4.872 1.272 V 0 1.06 4.45 6.78 8.477 h 1.483 V 6.78 h 3.39 L -12.078,0 h -7.415 v -1.694 h 8.476 l 3.813,-6.781 h -12.289 v -1.907 h 13.56 v -6.991 h -13.56 v -1.695 h 13.56 v -5.721 l 12.29,0.211 v 5.722 h 15.891 v -5.722 h 12.501 v 5.722 h 10.806 v -5.933 l 21.399,0.211 v 5.722 h 3.39 v 1.695 H 57.843 v 6.779 l 12.501,0.19 v 1.505 H 57.843 v 6.993 H 70.344 V 0 Z" /></g></g></g></g></svg>